<?xml version="1.0" standalone="no"?>
<!DOCTYPE svg PUBLIC "-//W3C//DTD SVG 20010904//EN"
 "http://www.w3.org/TR/2001/REC-SVG-20010904/DTD/svg10.dtd">
<svg version="1.0" xmlns="http://www.w3.org/2000/svg"
 width="512.000000pt" height="512.000000pt" viewBox="0 0 512.000000 512.000000"
 preserveAspectRatio="xMidYMid meet">
<metadata>
Created by potrace 1.14, written by Peter Selinger 2001-2017
</metadata>
<g transform="translate(0.000000,512.000000) scale(0.100000,-0.100000)"
fill="#000000" stroke="none">
<path d="M4838 4535 c-2 -2 -19 -5 -39 -8 -45 -6 -136 -47 -169 -77 -14 -12
-32 -27 -41 -34 -36 -26 -107 -127 -132 -186 -43 -105 -48 -174 -32 -535 5
-135 4 -185 -8 -242 -30 -138 -119 -285 -253 -415 -96 -94 -164 -142 -274
-196 -86 -42 -102 -47 -165 -46 -38 0 -115 7 -170 16 -79 14 -146 16 -325 13
-124 -2 -243 -6 -265 -9 -36 -4 -126 -14 -195 -21 -28 -3 -142 -16 -180 -21
-14 -2 -54 -6 -90 -9 -36 -3 -72 -8 -80 -10 -8 -2 -49 -7 -90 -10 -41 -4 -82
-9 -91 -10 -40 -8 -268 -18 -394 -19 -298 0 -489 37 -683 131 -130 63 -194
126 -308 298 -104 159 -181 250 -220 259 -45 12 -81 -11 -109 -68 -13 -28 -26
-60 -28 -71 -24 -133 -26 -139 -79 -170 -61 -36 -129 -107 -158 -165 -17 -33
-49 -149 -50 -181 0 -3 -20 -26 -43 -50 -57 -57 -76 -95 -72 -145 8 -114 89
-179 304 -245 181 -55 403 -264 478 -451 22 -54 23 -67 18 -205 -11 -258 -28
-471 -50 -613 -11 -72 -17 -101 -32 -159 -23 -94 -39 -127 -73 -151 -48 -34
-80 -113 -56 -138 7 -6 224 -8 230 -1 26 29 141 217 185 303 66 130 123 285
137 371 8 56 17 60 45 24 13 -18 29 -37 34 -43 65 -67 162 -307 194 -480 l9
-48 -44 -42 c-49 -48 -59 -86 -21 -87 23 -1 164 0 209 0 101 2 147 410 83 736
-25 126 -28 162 -15 170 6 4 96 9 198 10 103 2 198 6 212 8 14 3 54 8 90 12
36 4 74 9 85 11 11 2 40 6 65 9 25 4 56 8 70 11 14 2 45 7 70 10 25 3 63 10
85 14 22 5 66 12 98 15 32 4 70 10 85 14 26 7 30 3 80 -83 30 -50 74 -129 99
-176 25 -47 49 -89 53 -95 4 -5 17 -34 29 -64 29 -69 28 -138 -3 -266 -35
-144 -61 -206 -101 -245 -38 -37 -46 -74 -17 -87 14 -7 72 -9 158 -4 41 2 228
282 305 456 19 42 72 293 72 343 0 6 3 12 7 12 3 0 49 -38 101 -84 142 -125
164 -187 128 -361 -10 -49 -21 -108 -24 -130 -12 -76 -26 -117 -50 -139 -27
-23 -40 -64 -27 -84 8 -12 105 -18 185 -13 44 3 181 273 228 451 32 122 34
192 9 300 -30 132 -30 129 -40 184 -13 61 -12 169 0 222 29 126 31 406 3 554
-18 97 -5 140 55 179 161 105 367 299 471 446 86 121 158 273 176 375 17 87
20 219 9 365 -24 333 2 412 166 501 19 10 37 21 40 24 3 3 21 16 42 30 20 13
47 41 61 62 46 71 17 186 -56 225 -29 15 -103 34 -109 28z m-4380 -1721 c5
-35 -21 -56 -68 -56 -58 1 -70 14 -44 49 31 41 64 56 89 39 11 -7 21 -22 23
-32z"/>
</g>
</svg>
